<?xml version="1.0" encoding="UTF-8"?>
<svg id="Capa_1" data-name="Capa 1" xmlns="http://www.w3.org/2000/svg" version="1.1" viewBox="0 0 516 516">
  <defs>
    <style>
      .cls-1 {
        fill: #fff;
        stroke-width: 0px;
      }
    </style>
  </defs>
  <path class="cls-1" d="M208.25,240.7s48.83-3.63,48.83-60.89-39.95-85.21-90.56-85.21H0v320.01h166.52s101.66,3.21,101.66-94.45c0,0,4.43-79.46-59.93-79.46h0ZM154.54,151.48h11.99s22.64,0,22.64,33.3-13.31,38.12-28.41,38.12h-87.37v-71.41h81.16ZM161.82,357.74h-88.44v-85.52h93.15s33.74-.44,33.74,43.95c0,37.43-25.2,41.29-38.44,41.57h0ZM403.75,176.02c-123.07,0-122.96,122.96-122.96,122.96,0,0-8.44,122.33,122.96,122.33,0,0,109.5,6.26,109.5-85.1h-56.31s1.88,34.4-51.31,34.4c0,0-56.32,3.77-56.32-55.67h165.82s18.14-138.91-111.38-138.91h0ZM348.69,272.22s6.88-49.32,56.31-49.32,48.81,49.32,48.81,49.32h-105.12ZM466.93,152.86h-132.03v-39.41h132.03v39.41h0Z"/>
</svg>