<?xml version="1.0" encoding="UTF-8"?>
<svg id="Capa_1" data-name="Capa 1" xmlns="http://www.w3.org/2000/svg" viewBox="0 0 516 516">
  <defs>
    <style>
      .cls-1 {
        fill: #fff;
        stroke-width: 0px;
      }
    </style>
  </defs>
  <path class="cls-1" d="M257.57,46.42c68.79,0,76.94.26,104.11,1.5,25.12,1.15,38.76,5.34,47.84,8.87,12.03,4.67,20.61,10.26,29.62,19.27s14.6,17.6,19.27,29.62c3.53,9.08,7.73,22.72,8.87,47.84,1.24,27.17,1.5,35.32,1.5,104.11s-.26,76.94-1.5,104.11c-1.15,25.12-5.34,38.76-8.87,47.84-4.67,12.03-10.26,20.61-19.27,29.62-9.02,9.02-17.6,14.6-29.62,19.27-9.08,3.53-22.72,7.73-47.84,8.87-27.16,1.24-35.31,1.5-104.11,1.5s-76.95-.26-104.11-1.5c-25.12-1.15-38.76-5.34-47.84-8.87-12.03-4.67-20.61-10.26-29.62-19.27-9.02-9.02-14.6-17.6-19.27-29.62-3.53-9.08-7.73-22.72-8.87-47.84-1.24-27.17-1.5-35.32-1.5-104.11s.26-76.94,1.5-104.11c1.15-25.12,5.34-38.76,8.87-47.84,4.67-12.03,10.26-20.61,19.27-29.62,9.02-9.02,17.6-14.6,29.62-19.27,9.08-3.53,22.72-7.72,47.84-8.87,27.17-1.24,35.32-1.5,104.11-1.5M257.57,0c-69.97,0-78.74.3-106.22,1.55-27.42,1.25-46.15,5.61-62.54,11.98-16.94,6.58-31.31,15.39-45.63,29.72-14.32,14.32-23.13,28.69-29.72,45.63-6.37,16.39-10.72,35.12-11.98,62.54C.22,178.9-.08,187.67-.08,257.64s.3,78.75,1.55,106.22c1.25,27.42,5.61,46.15,11.98,62.54,6.58,16.94,15.39,31.31,29.72,45.63,14.32,14.32,28.69,23.13,45.63,29.72,16.39,6.37,35.12,10.72,62.54,11.98,27.48,1.25,36.25,1.55,106.22,1.55s78.75-.3,106.22-1.55c27.42-1.25,46.15-5.61,62.54-11.98,16.94-6.58,31.31-15.39,45.63-29.72,14.32-14.32,23.13-28.69,29.72-45.63,6.37-16.39,10.72-35.12,11.98-62.54,1.25-27.48,1.55-36.25,1.55-106.22s-.3-78.75-1.55-106.22c-1.25-27.42-5.61-46.15-11.98-62.54-6.58-16.94-15.39-31.31-29.72-45.63-14.32-14.32-28.69-23.13-45.63-29.72-16.39-6.37-35.12-10.72-62.54-11.98-27.48-1.25-36.25-1.55-106.22-1.55ZM257.57,125.34c-73.07,0-132.3,59.23-132.3,132.3s59.23,132.3,132.3,132.3,132.3-59.23,132.3-132.3-59.23-132.3-132.3-132.3ZM257.57,343.52c-47.43,0-85.88-38.45-85.88-85.88s38.45-85.88,85.88-85.88,85.88,38.45,85.88,85.88-38.45,85.88-85.88,85.88ZM426.01,120.11c0,17.08-13.84,30.92-30.92,30.92s-30.92-13.84-30.92-30.92,13.84-30.92,30.92-30.92,30.92,13.84,30.92,30.92Z"/>
</svg>