<?xml version="1.0" encoding="UTF-8"?>
<svg id="Capa_1" data-name="Capa 1" xmlns="http://www.w3.org/2000/svg" version="1.1" viewBox="0 0 516 516">
  <defs>
    <style>
      .cls-1 {
        fill: #fff;
        stroke-width: 0px;
      }
    </style>
  </defs>
  <path class="cls-1" d="M58.91,185.41c0-21.61,4.53-43.06,13.63-64.3,9.11-21.25,22.12-41,39.1-59.16,16.98-18.16,39.25-32.92,66.88-44.24C206.14,6.38,236.75.72,270.35.72c54.53,0,99.29,16.82,134.27,50.42,34.98,33.59,52.47,73.2,52.47,118.84,0,58.65-14.82,107.11-44.5,145.33-29.68,38.22-68.01,57.36-114.98,57.36-15.43,0-29.94-3.6-43.47-10.8s-23.05-15.95-28.55-26.24l-20.58,81.28c-1.7,6.53-3.96,13.12-6.69,19.81s-5.76,13.12-9,19.29c-3.24,6.17-6.53,11.99-9.77,17.49s-6.53,10.65-9.77,15.43-6.07,8.85-8.49,12.09c-2.42,3.24-4.63,6.07-6.69,8.49l-3.09,4.12c-1.03,1.39-2.42,1.9-4.12,1.54s-2.73-1.39-3.09-3.09c0-.36-.26-2.73-.77-7.2s-1.03-9.16-1.54-14.15-1.03-11.42-1.54-19.29-.67-15.54-.51-22.89.67-15.54,1.54-24.44,2.16-17.13,3.86-24.69c3.76-16.1,16.46-69.81,38.07-161.02-2.73-5.5-4.99-12.09-6.69-19.81s-2.57-13.99-2.57-18.78l-.51-7.72c0-21.97,5.56-40.23,16.72-54.79,11.16-14.56,24.59-21.86,40.38-21.86,12.71,0,22.53,4.22,29.58,12.6,7.05,8.39,10.55,18.93,10.55,31.64,0,7.87-1.44,17.59-4.37,29.07s-6.79,24.69-11.57,39.61c-4.78,14.92-8.23,27.01-10.29,36.27-3.45,15.43-.41,28.81,9,40.13,9.41,11.32,22.02,16.98,37.81,16.98,27.11,0,49.49-15.33,67.13-46.04,17.65-30.71,26.49-67.8,26.49-111.38,0-33.28-10.8-60.45-32.41-81.54-21.61-21.09-51.8-31.64-90.54-31.64-43.21,0-78.3,13.89-105.2,41.67-26.91,27.78-40.38,61.06-40.38,99.8,0,23,6.53,42.34,19.55,58.13,4.48,5.14,5.81,10.65,4.12,16.46-.67,1.7-1.7,5.66-3.09,11.83s-2.42,10.13-3.09,11.83c-.67,3.76-2.42,6.28-5.14,7.46s-5.81,1.13-9.26-.26c-20.22-8.23-35.39-22.38-45.53-42.44s-15.18-43.47-15.18-70.22Z"/>
</svg>