<?xml version="1.0" encoding="UTF-8"?>
<svg id="Capa_1" data-name="Capa 1" xmlns="http://www.w3.org/2000/svg" version="1.1" viewBox="0 0 516 516">
  <defs>
    <style>
      .cls-1 {
        fill: #fff;
        stroke-width: 0px;
      }
    </style>
  </defs>
  <rect class="cls-1" x="75.86" y="190.92" width="87.67" height="254.78" rx="6.07" ry="6.07"/>
  <path class="cls-1" d="M119.72,70.3c-27.48,0-49.84,22.33-49.84,49.79s22.36,49.81,49.84,49.81,49.8-22.34,49.8-49.81c0-27.45-22.34-49.79-49.8-49.79Z"/>
  <path class="cls-1" d="M349.58,184.89c-30.34,0-52.76,13.04-66.36,27.86v-15.76c0-3.35-2.72-6.07-6.07-6.07h-72.33c-3.35,0-6.07,2.72-6.07,6.07v242.65c0,3.35,2.72,6.07,6.07,6.07h75.36c3.35,0,6.07-2.72,6.07-6.07v-120.05c0-40.46,10.99-56.22,39.19-56.22,30.71,0,33.15,25.27,33.15,58.3v117.97c0,3.35,2.72,6.07,6.07,6.07h75.39c3.35,0,6.07-2.72,6.07-6.07v-133.1c0-60.16-11.47-121.65-96.54-121.65Z"/>
</svg>