<?xml version="1.0" encoding="UTF-8"?>
<svg id="Capa_1" data-name="Capa 1" xmlns="http://www.w3.org/2000/svg" viewBox="0 0 400 100">
  <defs>
    <style>
      .cls-1 {
        fill: #0d0d0d;
        stroke-width: 0px;
      }
    </style>
  </defs>
  <path class="cls-1" d="M0,70.11V13.8h9.65v23.25L30.89,13.8h11.99l-20.84,22.36,21.32,33.95h-11.75l-16.41-26.55-5.55,6.03v20.51H0Z"/>
  <path class="cls-1" d="M58.25,71.08c-3.86,0-7.33-.9-10.42-2.7-3.08-1.8-5.5-4.29-7.24-7.48-1.74-3.19-2.61-6.85-2.61-10.98s.88-7.95,2.65-11.14c1.77-3.19,4.2-5.68,7.28-7.48,3.08-1.8,6.56-2.69,10.42-2.69s7.33.9,10.42,2.69c3.08,1.8,5.5,4.28,7.24,7.44,1.74,3.17,2.61,6.87,2.61,11.1s-.88,7.94-2.65,11.1c-1.77,3.17-4.2,5.65-7.28,7.44-3.08,1.8-6.56,2.7-10.42,2.7ZM51.25,24.26c-1.4,0-2.55-.46-3.46-1.37-.91-.91-1.37-2.04-1.37-3.38s.46-2.48,1.37-3.42c.91-.94,2.06-1.41,3.46-1.41,1.29,0,2.4.47,3.34,1.41.94.94,1.41,2.08,1.41,3.42s-.47,2.47-1.41,3.38c-.94.91-2.05,1.37-3.34,1.37ZM58.25,62.79c1.93,0,3.69-.48,5.27-1.45,1.58-.97,2.86-2.41,3.82-4.34s1.45-4.32,1.45-7.16-.47-5.22-1.41-7.12c-.94-1.9-2.2-3.34-3.78-4.3-1.58-.96-3.34-1.45-5.27-1.45s-3.62.48-5.23,1.45c-1.61.97-2.9,2.4-3.86,4.3-.97,1.9-1.45,4.28-1.45,7.12s.48,5.23,1.45,7.16,2.24,3.38,3.82,4.34c1.58.97,3.31,1.45,5.19,1.45ZM65.41,24.26c-1.34,0-2.47-.46-3.38-1.37-.91-.91-1.37-2.04-1.37-3.38s.46-2.48,1.37-3.42c.91-.94,2.04-1.41,3.38-1.41s2.47.47,3.38,1.41c.91.94,1.37,2.08,1.37,3.42s-.46,2.47-1.37,3.38c-.91.91-2.04,1.37-3.38,1.37Z"/>
  <path class="cls-1" d="M79.97,70.11V12.19h9.65v57.92h-9.65Z"/>
  <path class="cls-1" d="M105.87,71.08c-3.33,0-6.09-.56-8.29-1.69-2.2-1.13-3.83-2.63-4.91-4.51-1.07-1.88-1.61-3.91-1.61-6.11,0-2.58.66-4.8,1.97-6.68,1.31-1.88,3.26-3.34,5.83-4.38,2.57-1.05,5.74-1.57,9.49-1.57h10.22c0-2.14-.3-3.93-.88-5.35-.59-1.42-1.5-2.48-2.74-3.18-1.23-.7-2.82-1.05-4.75-1.05-2.2,0-4.08.5-5.63,1.49-1.56.99-2.52,2.51-2.9,4.54h-9.49c.32-2.9,1.29-5.38,2.9-7.44,1.61-2.06,3.74-3.67,6.4-4.83s5.56-1.73,8.73-1.73c3.81,0,7.05.66,9.73,1.97,2.68,1.31,4.73,3.19,6.15,5.63,1.42,2.44,2.13,5.38,2.13,8.81v25.1h-8.21l-.97-6.52c-.54,1.07-1.22,2.07-2.05,2.98-.83.91-1.78,1.7-2.86,2.37-1.07.67-2.29,1.19-3.66,1.57-1.37.37-2.91.56-4.63.56ZM108.05,63.44c1.56,0,2.94-.28,4.14-.84,1.21-.56,2.25-1.37,3.14-2.41.88-1.05,1.57-2.21,2.05-3.5.48-1.29.8-2.65.97-4.1v-.16h-8.93c-1.88,0-3.43.24-4.67.72-1.23.48-2.12,1.14-2.65,1.97-.54.83-.8,1.81-.8,2.94s.27,2.09.8,2.9c.54.81,1.31,1.42,2.33,1.85,1.02.43,2.23.64,3.62.64Z"/>
  <path class="cls-1" d="M134.03,87.81l9.89-22.2h-2.41l-16.17-36.04h10.54l12.07,27.51,11.42-27.51h10.22l-25.34,58.25h-10.22Z"/>
  <path class="cls-1" d="M181.01,70.11V13.8h5.63v56.32h-5.63ZM185.36,43.81v-4.67h33.39v4.67h-33.39ZM217.13,70.11V13.8h5.63v56.32h-5.63Z"/>
  <path class="cls-1" d="M244.08,71.08c-3.75,0-7.07-.88-9.94-2.65-2.87-1.77-5.12-4.25-6.76-7.44-1.64-3.19-2.45-6.93-2.45-11.22s.8-8.02,2.41-11.18c1.61-3.16,3.87-5.62,6.8-7.36,2.92-1.74,6.29-2.61,10.1-2.61s7.24.88,9.98,2.65,4.81,4.08,6.24,6.92c1.42,2.84,2.13,5.95,2.13,9.33v1.65c0,.56-.03,1.22-.08,1.97h-33.31v-4.75h27.92c-.16-4.13-1.46-7.32-3.9-9.57-2.44-2.25-5.51-3.38-9.21-3.38-2.36,0-4.59.55-6.68,1.65-2.09,1.1-3.77,2.71-5.03,4.83-1.26,2.12-1.89,4.79-1.89,8v2.09c0,3.65.66,6.68,1.97,9.09,1.31,2.41,3.02,4.21,5.11,5.39,2.09,1.18,4.29,1.77,6.6,1.77,3.06,0,5.58-.68,7.56-2.05,1.98-1.37,3.4-3.26,4.26-5.67h5.55c-.64,2.36-1.74,4.49-3.3,6.4-1.56,1.9-3.51,3.41-5.87,4.51-2.36,1.1-5.1,1.65-8.21,1.65Z"/>
  <path class="cls-1" d="M276.67,71.08c-3.27,0-5.99-.59-8.17-1.77-2.17-1.18-3.78-2.71-4.83-4.59-1.05-1.88-1.57-3.94-1.57-6.19,0-2.79.71-5.15,2.13-7.08,1.42-1.93,3.43-3.38,6.03-4.34,2.6-.97,5.59-1.45,8.97-1.45h10.94c0-2.63-.4-4.85-1.21-6.68-.81-1.82-1.97-3.2-3.5-4.14-1.53-.94-3.47-1.41-5.83-1.41-2.79,0-5.18.7-7.16,2.09-1.98,1.4-3.22,3.43-3.7,6.12h-5.87c.32-2.84,1.3-5.23,2.94-7.16,1.63-1.93,3.67-3.39,6.11-4.38,2.44-.99,5-1.49,7.68-1.49,3.7,0,6.74.71,9.13,2.13,2.39,1.42,4.16,3.37,5.31,5.83s1.73,5.31,1.73,8.53v25.02h-5.15l-.24-7.4c-.54,1.13-1.22,2.2-2.05,3.22-.83,1.02-1.8,1.91-2.9,2.65-1.1.75-2.37,1.36-3.82,1.81s-3.11.68-4.99.68ZM277.31,66.09c2.04,0,3.83-.4,5.39-1.21,1.55-.8,2.9-1.88,4.02-3.22,1.13-1.34,1.98-2.87,2.57-4.59.59-1.72.88-3.46.88-5.23v-1.45h-10.54c-2.84,0-5.12.35-6.84,1.05-1.72.7-2.95,1.64-3.7,2.82-.75,1.18-1.13,2.55-1.13,4.1s.36,2.91,1.09,4.06c.72,1.15,1.78,2.05,3.18,2.7,1.39.64,3.08.97,5.07.97Z"/>
  <path class="cls-1" d="M308.69,70.11l-15.45-40.55h5.87l12.87,35.08,12.87-35.08h5.79l-15.53,40.55h-6.44Z"/>
  <path class="cls-1" d="M345.7,71.08c-3.75,0-7.07-.88-9.94-2.65-2.87-1.77-5.12-4.25-6.76-7.44-1.64-3.19-2.45-6.93-2.45-11.22s.81-8.02,2.41-11.18c1.61-3.16,3.87-5.62,6.8-7.36,2.92-1.74,6.29-2.61,10.1-2.61s7.24.88,9.98,2.65c2.74,1.77,4.81,4.08,6.24,6.92,1.42,2.84,2.13,5.95,2.13,9.33v1.65c0,.56-.03,1.22-.08,1.97h-33.31v-4.75h27.92c-.16-4.13-1.46-7.32-3.9-9.57-2.44-2.25-5.51-3.38-9.21-3.38-2.36,0-4.59.55-6.68,1.65-2.09,1.1-3.77,2.71-5.03,4.83-1.26,2.12-1.89,4.79-1.89,8v2.09c0,3.65.66,6.68,1.97,9.09,1.31,2.41,3.02,4.21,5.11,5.39,2.09,1.18,4.29,1.77,6.6,1.77,3.06,0,5.58-.68,7.56-2.05,1.98-1.37,3.41-3.26,4.26-5.67h5.55c-.64,2.36-1.74,4.49-3.3,6.4-1.56,1.9-3.51,3.41-5.87,4.51-2.36,1.1-5.1,1.65-8.21,1.65Z"/>
  <path class="cls-1" d="M365.33,70.11V29.57h5.15l.32,7.24c1.29-2.57,3.15-4.59,5.59-6.03,2.44-1.45,5.16-2.17,8.17-2.17s5.82.62,8.12,1.85c2.31,1.24,4.1,3.1,5.39,5.59,1.29,2.49,1.93,5.67,1.93,9.53v24.54h-5.63v-23.89c0-4.29-.94-7.48-2.82-9.57-1.88-2.09-4.53-3.14-7.96-3.14-2.41,0-4.57.58-6.48,1.73-1.9,1.15-3.41,2.83-4.51,5.03-1.1,2.2-1.65,4.91-1.65,8.13v21.72h-5.63Z"/>
</svg>